<?xml version="1.0" encoding="utf-8"?>
<!-- Generator: Adobe Illustrator 16.0.0, SVG Export Plug-In . SVG Version: 6.00 Build 0)  -->
<!DOCTYPE svg PUBLIC "-//W3C//DTD SVG 1.1//EN" "http://www.w3.org/Graphics/SVG/1.1/DTD/svg11.dtd">
<svg version="1.1" id="Capa_1" xmlns="http://www.w3.org/2000/svg" xmlns:xlink="http://www.w3.org/1999/xlink" x="0px" y="0px"
	 width="80px" height="80px" viewBox="378.688 90.648 80 80" enable-background="new 378.688 90.648 80 80" xml:space="preserve">
<path fill="#18457E" d="M418.845,90.648c-21.984,0-40.156,17.859-40.156,39.844s18.172,40.156,40.156,40.156
	s39.844-18.172,39.844-40.156S440.829,90.648,418.845,90.648z"/>
<path fill="#7080AC" d="M458.688,130.492c0,21.984-17.859,40.156-39.844,40.156v-80C440.829,90.648,458.688,108.508,458.688,130.492
	z"/>
<path fill="#FFFFFF" d="M418.845,104.711c-14.203,0-26.094,11.578-26.094,25.781s11.891,26.094,26.094,26.094
	c5.719,0,11.156-1.828,15.656-5.297c2.484-1.922-0.422-5.625-2.813-3.75c-3.703,2.859-8.156,4.359-12.844,4.359
	c-11.625,0-21.406-9.781-21.406-21.406s9.781-21.094,21.406-21.094s21.094,9.469,21.094,21.094v2.656c0,6.188-9.375,6.188-9.375,0
	v-12.031c0-3.094-4.688-3.094-4.688,0v0.047c-1.969-1.453-4.359-2.391-7.031-2.391c-6.469,0-11.719,5.25-11.719,11.719
	s5.25,12.031,11.719,12.031c3.516,0,6.609-1.547,8.766-3.984c5.25,7.5,17.016,3.703,17.016-5.391v-2.656
	C444.626,116.289,433.048,104.711,418.845,104.711z M418.845,137.836c-3.891,0-7.031-3.453-7.031-7.344s3.141-7.031,7.031-7.031
	s7.031,3.141,7.031,7.031S422.735,137.836,418.845,137.836z"/>
<g>
	<path fill="#FFFFFF" d="M434.501,151.289c-4.5,3.469-9.938,5.297-15.656,5.297v-4.688c4.688,0,9.141-1.5,12.844-4.359
		C434.079,145.664,436.985,149.367,434.501,151.289z"/>
	<path fill="#FFFFFF" d="M444.626,130.492v2.656c0,9.094-11.766,12.891-17.016,5.391c-2.156,2.438-5.25,3.984-8.766,3.984v-4.688
		c3.891,0,7.031-3.453,7.031-7.344s-3.141-7.031-7.031-7.031v-4.688c2.672,0,5.063,0.938,7.031,2.391v-0.047
		c0-3.094,4.688-3.094,4.688,0v12.031c0,6.188,9.375,6.188,9.375,0v-2.656c0-11.625-9.469-21.094-21.094-21.094v-4.688
		C433.048,104.711,444.626,116.289,444.626,130.492z"/>
</g>
</svg>
